# xmcd
#
# Track frame offsets:
#	150
#	15016
#	37504
#	53678
#	67615
#	82596
#	103900
#	128430
#	146925
#	168576
#	185632
#	202518
#	238953
#
# Disc length: 3596 seconds
# Revision: 0
# Processed by: cddbd v1.5.2PL0 Copyright (c) Steve Scherf et al.
# Submitted via: dBpowerAMP V12.0
#
DISCID=930e0a0d
DTITLE=The Honeycutters - The Honeycutters/On the Ropes
DYEAR=2016
DGENRE=Americana
TTITLE0=On the Ropes
TTITLE1=Blue Besides
TTITLE2=Golden Child
TTITLE3=The Handbook
TTITLE4=The Only Eyes
TTITLE5=Back Row
TTITLE6=Useless Memories
TTITLE7=Piece of Heaven
TTITLE8=Let's Get Drunk
TTITLE9=500 Pieces
TTITLE10=Ache
TTITLE11=Hallelujah
TTITLE12=Barmaid's Blues
EXTD=
EXTT0=
EXTT1=
EXTT2=
EXTT3=
EXTT4=
EXTT5=
EXTT6=
EXTT7=
EXTT8=
EXTT9=
EXTT10=
EXTT11=
EXTT12=
PLAYORDER=
